<?xml version="1.0" encoding="UTF-8" standalone="no"?>
<svg width="12px" height="21px" viewBox="0 0 12 21" version="1.1" xmlns="http://www.w3.org/2000/svg" xmlns:xlink="http://www.w3.org/1999/xlink">
    <!-- Generator: Sketch 39.1 (31720) - http://www.bohemiancoding.com/sketch -->
    <title>arrow-left</title>
    <desc>Created with Sketch.</desc>
    <defs></defs>
    <g id="Page-1" stroke="none" stroke-width="1" fill="none" fill-rule="evenodd">
        <g id="Astronaut-Selected" transform="translate(-758.000000, -237.000000)" fill="#4882CC">
            <path d="M768.6875,237.25 C768.778646,237.25 768.863281,237.266276 768.941406,237.298828 C769.019532,237.33138 769.091146,237.380208 769.15625,237.445312 C769.286459,237.575521 769.351562,237.735025 769.351562,237.923828 C769.351562,238.112631 769.286459,238.272135 769.15625,238.402344 L760.25,247.308594 L769.039062,256.097656 C769.169271,256.227865 769.234375,256.384114 769.234375,256.566406 C769.234375,256.748699 769.169271,256.904947 769.039062,257.035156 C768.908854,257.165365 768.74935,257.230469 768.560547,257.230469 C768.371744,257.230469 768.21224,257.165365 768.082031,257.035156 L758.824219,247.777344 C758.69401,247.647135 758.628906,247.490886 758.628906,247.308594 C758.628906,247.126301 758.69401,246.970053 758.824219,246.839844 L768.21875,237.445312 C768.283854,237.380208 768.358724,237.33138 768.443359,237.298828 C768.527995,237.266276 768.609375,237.25 768.6875,237.25 L768.6875,237.25 Z" id="arrow-left"></path>
        </g>
    </g>
</svg>