<?xml version="1.0" encoding="UTF-8" standalone="no"?>
<svg width="12px" height="21px" viewBox="0 0 12 21" version="1.1" xmlns="http://www.w3.org/2000/svg" xmlns:xlink="http://www.w3.org/1999/xlink">
    <!-- Generator: Sketch 39.1 (31720) - http://www.bohemiancoding.com/sketch -->
    <title>arrow-right</title>
    <desc>Created with Sketch.</desc>
    <defs></defs>
    <g id="Page-1" stroke="none" stroke-width="1" fill="none" fill-rule="evenodd">
        <g id="Astronaut-Selected" transform="translate(-978.000000, -237.000000)" fill="#4882CC">
            <path d="M979.3125,257.230469 C979.221354,257.230469 979.133464,257.214193 979.048828,257.181641 C978.964192,257.149088 978.889323,257.100261 978.824219,257.035156 C978.69401,256.904947 978.628906,256.748699 978.628906,256.566406 C978.628906,256.384114 978.69401,256.227865 978.824219,256.097656 L987.75,247.171875 L978.960938,238.402344 C978.830729,238.272135 978.765625,238.112631 978.765625,237.923828 C978.765625,237.735025 978.830729,237.575521 978.960938,237.445312 C979.091146,237.315104 979.25065,237.25 979.439453,237.25 C979.628256,237.25 979.78776,237.315104 979.917969,237.445312 L989.15625,246.703125 C989.286459,246.833334 989.351562,246.989582 989.351562,247.171875 C989.351562,247.354168 989.286459,247.510416 989.15625,247.640625 L979.78125,257.035156 C979.716146,257.100261 979.641276,257.149088 979.556641,257.181641 C979.472005,257.214193 979.390625,257.230469 979.3125,257.230469 L979.3125,257.230469 Z" id="arrow-right"></path>
        </g>
    </g>
</svg>