<?xml version="1.0" encoding="UTF-8" standalone="no"?>
<svg width="21px" height="21px" viewBox="0 0 21 21" version="1.1" xmlns="http://www.w3.org/2000/svg" xmlns:xlink="http://www.w3.org/1999/xlink">
    <!-- Generator: Sketch 39.1 (31720) - http://www.bohemiancoding.com/sketch -->
    <title>icon-ship</title>
    <desc>Created with Sketch.</desc>
    <defs></defs>
    <g id="Page-1" stroke="none" stroke-width="1" fill="none" fill-rule="evenodd">
        <g id="Astronaut-Selected" transform="translate(-865.000000, -478.000000)" fill="#C7578E">
            <g id="Group-3" transform="translate(754.000000, 478.000000)">
                <path d="M115.101563,17.4960937 C114.906249,17.9127625 114.658856,18.2480456 114.359375,18.5019531 C114.059894,18.7558606 113.363287,18.9023436 112.269531,18.9414062 C112.295573,17.8867135 112.412759,17.2161473 112.621094,16.9296875 C112.829428,16.6432277 113.135415,16.4023447 113.539063,16.2070312 C113.708334,16.115885 113.897134,16.0149745 114.105469,15.9042969 C114.313803,15.7936192 114.528645,15.6536467 114.75,15.484375 L113.988281,14.5078125 C113.805989,14.6510424 113.633464,14.7649735 113.470703,14.8496094 C113.307942,14.9342452 113.141928,15.0156246 112.972656,15.09375 C112.30859,15.4192725 111.813804,15.8522108 111.488281,16.3925781 C111.162759,16.9329454 111,17.9843672 111,19.546875 L111.019531,20.1914062 L111.625,20.171875 C113.291675,20.171875 114.391924,19.9928403 114.925781,19.6347656 C115.459638,19.2766909 115.882811,18.778649 116.195313,18.140625 C116.260417,17.9973951 116.31901,17.8671881 116.371094,17.75 C116.423177,17.6328119 116.507812,17.4765635 116.625,17.28125 L115.707031,16.4414062 C115.563801,16.6367197 115.446615,16.8222647 115.355469,16.9980469 C115.264322,17.173829 115.179688,17.339843 115.101563,17.4960937 L115.101563,17.4960937 Z M124.769531,3.94140625 C124.079424,3.94140625 123.490237,4.18554443 123.001953,4.67382812 C122.513669,5.16211182 122.269531,5.75129863 122.269531,6.44140625 C122.269531,7.13151387 122.513669,7.72070068 123.001953,8.20898437 C123.490237,8.69726807 124.079424,8.94140625 124.769531,8.94140625 C125.459639,8.94140625 126.048826,8.69726807 126.537109,8.20898437 C127.025393,7.72070068 127.269531,7.13151387 127.269531,6.44140625 C127.269531,5.75129863 127.025393,5.16211182 126.537109,4.67382812 C126.048826,4.18554443 125.459639,3.94140625 124.769531,3.94140625 L124.769531,3.94140625 Z M124.769531,7.69140625 C124.417967,7.69140625 124.121746,7.56770957 123.880859,7.3203125 C123.639973,7.07291543 123.519531,6.77994961 123.519531,6.44140625 C123.519531,6.10286289 123.639973,5.80989707 123.880859,5.5625 C124.121746,5.31510293 124.417967,5.19140625 124.769531,5.19140625 C125.108075,5.19140625 125.40104,5.31510293 125.648438,5.5625 C125.895835,5.80989707 126.019531,6.10286289 126.019531,6.44140625 C126.019531,6.77994961 125.895835,7.07291543 125.648438,7.3203125 C125.40104,7.56770957 125.108075,7.69140625 124.769531,7.69140625 L124.769531,7.69140625 Z M131,0.81640625 C130.986979,0.660155469 130.925131,0.526693262 130.814453,0.416015625 C130.703775,0.305337988 130.570313,0.243489648 130.414063,0.23046875 C130.414063,0.23046875 130.215497,0.223958398 129.818359,0.2109375 C129.421222,0.197916602 128.897139,0.21419248 128.246094,0.259765625 C127.595049,0.30533877 126.859379,0.402994043 126.039063,0.552734375 C125.218746,0.702474707 124.391931,0.933592187 123.558594,1.24609375 C122.946612,1.46744902 122.380211,1.76367002 121.859375,2.13476562 C121.338539,2.50586123 120.843752,2.97135137 120.375,3.53125 C119.971352,3.98698145 119.577476,4.58593379 119.193359,5.328125 C118.809243,6.07031621 118.447918,6.78645488 118.109375,7.4765625 C117.979166,7.75000137 117.848959,8.01041543 117.71875,8.2578125 C117.588541,8.50520957 117.471355,8.72656152 117.367188,8.921875 L113.890625,8.921875 C113.799479,8.921875 113.714844,8.93815088 113.636719,8.97070312 C113.558593,9.00325537 113.486979,9.05208301 113.421875,9.1171875 L111.136719,11.6171875 C111.058593,11.6953129 111.009766,11.7864578 110.990234,11.890625 C110.970703,11.9947922 110.973958,12.1054682 111,12.2226562 C111.039063,12.3268234 111.097656,12.4147132 111.175781,12.4863281 C111.253907,12.5579431 111.351562,12.6067707 111.46875,12.6328125 L115.199219,13.4921875 C115.316407,13.6484383 115.485676,13.847004 115.707031,14.0878906 C115.928387,14.3287772 116.208332,14.6380189 116.546875,15.015625 L117.953125,16.578125 L118.714844,19.8007812 C118.740886,19.9049484 118.792968,19.9993485 118.871094,20.0839844 C118.949219,20.1686202 119.040364,20.2239582 119.144531,20.25 C119.170573,20.2630209 119.19987,20.2727864 119.232422,20.2792969 C119.264974,20.2858073 119.294271,20.2890625 119.320313,20.2890625 C119.398438,20.2890625 119.473307,20.2760418 119.544922,20.25 C119.616537,20.2239582 119.678385,20.1848961 119.730469,20.1328125 L122.054688,17.828125 C122.119792,17.7760414 122.171875,17.7076827 122.210938,17.6230469 C122.25,17.538411 122.269531,17.4505213 122.269531,17.359375 L122.269531,14.1367187 C122.425782,14.0325516 122.630858,13.9121101 122.884766,13.7753906 C123.138673,13.6386712 123.395832,13.4986986 123.65625,13.3554687 C124.359379,12.9518209 125.160152,12.5221377 126.058594,12.0664062 C126.957036,11.6106748 127.621092,11.187502 128.050781,10.796875 C128.675784,10.2499973 129.131509,9.74544502 129.417969,9.28320312 C129.704429,8.82096123 129.958332,8.29687793 130.179688,7.7109375 C130.440105,7.00780898 130.628906,6.25911855 130.746094,5.46484375 C130.863282,4.67056895 130.941406,3.93815439 130.980469,3.26757812 C131.019531,2.59700186 131.032552,2.03060127 131.019531,1.56835937 C131.00651,1.10611748 131,0.855468945 131,0.81640625 L131,0.81640625 Z M129.007813,7.26171875 C128.812499,7.78255469 128.597657,8.22851377 128.363281,8.59960937 C128.128905,8.97070498 127.751305,9.39062266 127.230469,9.859375 C126.839842,10.1979184 126.205083,10.5917946 125.326172,11.0410156 C124.447261,11.4902366 123.688805,11.8971336 123.050781,12.2617187 C122.569008,12.5221367 122.178387,12.7369783 121.878906,12.90625 C121.579426,13.0755217 121.371094,13.2122391 121.253906,13.3164062 C121.175781,13.3815107 121.117188,13.4563798 121.078125,13.5410156 C121.039062,13.6256515 121.019531,13.7135412 121.019531,13.8046875 L121.019531,17.0664062 L119.691406,18.5117187 L119.144531,16.1484375 C119.13151,16.0963539 119.111979,16.0475263 119.085938,16.0019531 C119.059896,15.95638 119.027344,15.9140627 118.988281,15.875 C118.415362,15.236976 117.787113,14.5371132 117.103516,13.7753906 C116.419918,13.0136681 116.045573,12.5937504 115.980469,12.515625 C115.928385,12.4635414 115.873047,12.4179689 115.814453,12.3789062 C115.755859,12.3398436 115.694011,12.3138021 115.628906,12.3007812 L112.777344,11.65625 L114.183594,10.171875 L117.738281,10.171875 C117.842448,10.171875 117.940104,10.1425784 118.03125,10.0839844 C118.122396,10.0253903 118.200521,9.95052129 118.265625,9.859375 C118.395834,9.63801973 118.542317,9.37109531 118.705078,9.05859375 C118.867839,8.74609219 119.040364,8.40755391 119.222656,8.04296875 C119.535158,7.41796562 119.876951,6.74414424 120.248047,6.02148437 C120.619142,5.29882451 120.973957,4.7356791 121.3125,4.33203125 C121.716148,3.86327891 122.13281,3.47265781 122.5625,3.16015625 C122.99219,2.84765469 123.467445,2.60026133 123.988281,2.41796875 C124.561201,2.19661348 125.134112,2.02408916 125.707031,1.90039062 C126.279951,1.77669209 126.823565,1.68229199 127.337891,1.6171875 C127.852216,1.55208301 128.317706,1.50976572 128.734375,1.49023437 C129.151044,1.47070303 129.496092,1.4609375 129.769531,1.4609375 C129.769531,1.74739727 129.766276,2.1184873 129.759766,2.57421875 C129.753255,3.0299502 129.723959,3.52473691 129.671875,4.05859375 C129.619791,4.59245059 129.541667,5.13606494 129.4375,5.68945312 C129.333333,6.24284131 129.190105,6.76692461 129.007813,7.26171875 L129.007813,7.26171875 Z" id="icon-ship"></path>
            </g>
        </g>
    </g>
</svg>