<?xml version="1.0" encoding="UTF-8" standalone="no"?>
<svg width="20px" height="21px" viewBox="0 0 20 21" version="1.1" xmlns="http://www.w3.org/2000/svg" xmlns:xlink="http://www.w3.org/1999/xlink">
    <!-- Generator: Sketch 39.1 (31720) - http://www.bohemiancoding.com/sketch -->
    <title>icon-role</title>
    <desc>Created with Sketch.</desc>
    <defs></defs>
    <g id="Page-1" stroke="none" stroke-width="1" fill="none" fill-rule="evenodd">
        <g id="Astronaut-Selected" transform="translate(-865.000000, -349.000000)" fill="#C7578E">
            <path d="M884.941406,365.65625 L881.289062,358.898438 C881.471355,358.468748 881.614583,358.022789 881.71875,357.560547 C881.822917,357.098305 881.875,356.619794 881.875,356.125 C881.875,355.174474 881.69271,354.282556 881.328125,353.449219 C880.96354,352.615881 880.472008,351.886722 879.853516,351.261719 C879.235023,350.636716 878.509119,350.145184 877.675781,349.787109 C876.842444,349.429035 875.950526,349.25 875,349.25 C874.049474,349.25 873.157556,349.429035 872.324219,349.787109 C871.490881,350.145184 870.761722,350.636716 870.136719,351.261719 C869.511716,351.886722 869.020184,352.615881 868.662109,353.449219 C868.304035,354.282556 868.125,355.174474 868.125,356.125 C868.125,356.632815 868.177083,357.124347 868.28125,357.599609 C868.385417,358.074872 868.535155,358.527342 868.730469,358.957031 L865.058594,365.65625 C864.993489,365.760417 864.967448,365.874348 864.980469,365.998047 C864.99349,366.121745 865.039062,366.229166 865.117188,366.320312 C865.182292,366.42448 865.273437,366.499349 865.390625,366.544922 C865.507813,366.590495 865.624999,366.59375 865.742188,366.554688 L868.886719,365.851562 L869.960938,368.839844 C870,368.957032 870.068359,369.051432 870.166016,369.123047 C870.263672,369.194662 870.377604,369.236979 870.507812,369.25 L870.517578,369.25 L870.546875,369.25 C870.664063,369.25 870.771484,369.220703 870.869141,369.162109 C870.966797,369.103515 871.041666,369.022136 871.09375,368.917969 L874.296875,362.960938 C874.414063,362.973958 874.531249,362.983724 874.648438,362.990234 C874.765626,362.996745 874.882812,363 875,363 C875.104167,363 875.211588,362.996745 875.322266,362.990234 C875.432943,362.983724 875.540364,362.973958 875.644531,362.960938 L878.90625,368.917969 C878.958334,369.022136 879.033203,369.103515 879.130859,369.162109 C879.228516,369.220703 879.335937,369.25 879.453125,369.25 L879.482422,369.25 L879.511719,369.25 C879.628907,369.236979 879.736328,369.194662 879.833984,369.123047 C879.931641,369.051432 880,368.957032 880.039062,368.839844 L881.113281,365.851562 L884.257812,366.554688 C884.375001,366.59375 884.492187,366.590495 884.609375,366.544922 C884.726563,366.499349 884.817708,366.43099 884.882812,366.339844 C884.960938,366.235677 885.00651,366.121745 885.019531,365.998047 C885.032552,365.874348 885.006511,365.760417 884.941406,365.65625 L884.941406,365.65625 Z M870.664062,367.082031 L869.882812,364.894531 C869.817708,364.751301 869.716798,364.640625 869.580078,364.5625 C869.443359,364.484375 869.296876,364.464844 869.140625,364.503906 L866.816406,365.03125 L869.472656,360.207031 C869.902346,360.792972 870.419919,361.300779 871.025391,361.730469 C871.630862,362.160158 872.291663,362.485676 873.007812,362.707031 L870.664062,367.082031 Z M869.375,356.125 C869.375,355.356767 869.521483,354.630863 869.814453,353.947266 C870.107423,353.263668 870.511065,352.667971 871.025391,352.160156 C871.539716,351.652341 872.135413,351.248699 872.8125,350.949219 C873.489587,350.649738 874.218746,350.5 875,350.5 C875.768233,350.5 876.494137,350.649738 877.177734,350.949219 C877.861332,351.248699 878.457029,351.652341 878.964844,352.160156 C879.472659,352.667971 879.873045,353.263668 880.166016,353.947266 C880.458986,354.630863 880.605469,355.356767 880.605469,356.125 C880.605469,356.893233 880.458986,357.619137 880.166016,358.302734 C879.873045,358.986332 879.472659,359.582029 878.964844,360.089844 C878.457029,360.597659 877.861332,361.001301 877.177734,361.300781 C876.494137,361.600262 875.768233,361.75 875,361.75 C874.218746,361.75 873.489587,361.600262 872.8125,361.300781 C872.135413,361.001301 871.539716,360.597659 871.025391,360.089844 C870.511065,359.582029 870.107423,358.986332 869.814453,358.302734 C869.521483,357.619137 869.375,356.893233 869.375,356.125 L869.375,356.125 Z M880.859375,364.503906 C880.703124,364.464844 880.556641,364.484375 880.419922,364.5625 C880.283202,364.640625 880.182292,364.751301 880.117188,364.894531 L879.335938,367.101562 L876.933594,362.726562 C877.662764,362.505207 878.336585,362.173179 878.955078,361.730469 C879.573571,361.287758 880.104164,360.76693 880.546875,360.167969 L883.183594,365.03125 L880.859375,364.503906 Z" id="icon-role"></path>
        </g>
    </g>
</svg>