<?xml version="1.0" encoding="UTF-8" standalone="no"?>
<svg width="14px" height="21px" viewBox="0 0 14 21" version="1.1" xmlns="http://www.w3.org/2000/svg" xmlns:xlink="http://www.w3.org/1999/xlink">
    <!-- Generator: Sketch 39.1 (31720) - http://www.bohemiancoding.com/sketch -->
    <title>icon-elapsed</title>
    <desc>Created with Sketch.</desc>
    <defs></defs>
    <g id="Page-1" stroke="none" stroke-width="1" fill="none" fill-rule="evenodd">
        <g id="Astronaut-Selected" transform="translate(-868.000000, -414.000000)" fill="#C7578E">
            <g id="Group-2" transform="translate(754.000000, 414.000000)">
                <g id="Group-4">
                    <path d="M127.269531,1.51953125 L126.019531,1.51953125 L126.019531,5.71875 C126.019531,6.73438008 125.736331,7.63606377 125.169922,8.42382812 C124.603513,9.21159248 123.72136,9.90494492 122.523438,10.5039062 C123.760423,11.1289094 124.655596,11.845048 125.208984,12.6523438 C125.762373,13.4596395 126.039062,14.4296818 126.039062,15.5625 C126.039062,16.3046912 126.035807,16.9752574 126.029297,17.5742188 C126.022786,18.1731801 126.019531,18.6419254 126.019531,18.9804688 L127.269531,18.9804688 C127.438803,18.9804688 127.585286,19.0423171 127.708984,19.1660156 C127.832683,19.2897142 127.894531,19.4361971 127.894531,19.6054688 C127.894531,19.7877613 127.832683,19.9374994 127.708984,20.0546875 C127.585286,20.1718756 127.438803,20.2304688 127.269531,20.2304688 L114.730469,20.2304688 C114.561197,20.2304688 114.414714,20.1718756 114.291016,20.0546875 C114.167317,19.9374994 114.105469,19.7877613 114.105469,19.6054688 C114.105469,19.4361971 114.167317,19.2897142 114.291016,19.1660156 C114.414714,19.0423171 114.561197,18.9804688 114.730469,18.9804688 L116.019531,18.9804688 C116.019531,18.6419254 116.016276,18.1731801 116.009766,17.5742188 C116.003255,16.9752574 116,16.3046912 116,15.5625 C116,14.4296818 116.273435,13.4596395 116.820312,12.6523438 C117.36719,11.845048 118.252598,11.1289094 119.476562,10.5039062 C118.304682,9.90494492 117.43555,9.21159248 116.869141,8.42382812 C116.302732,7.63606377 116.019531,6.73438008 116.019531,5.71875 L116.019531,1.51953125 L114.730469,1.51953125 C114.561197,1.51953125 114.414714,1.45768291 114.291016,1.33398438 C114.167317,1.21028584 114.105469,1.06380293 114.105469,0.89453125 C114.105469,0.712238672 114.167317,0.562500586 114.291016,0.4453125 C114.414714,0.328124414 114.561197,0.26953125 114.730469,0.26953125 L127.269531,0.26953125 C127.438803,0.26953125 127.585286,0.328124414 127.708984,0.4453125 C127.832683,0.562500586 127.894531,0.712238672 127.894531,0.89453125 C127.894531,1.06380293 127.832683,1.21028584 127.708984,1.33398438 C127.585286,1.45768291 127.438803,1.51953125 127.269531,1.51953125 L127.269531,1.51953125 Z M117.25,15.5625 C117.25,16.3177121 117.253255,16.9915335 117.259766,17.5839844 C117.266276,18.1764353 117.269531,18.6419254 117.269531,18.9804688 L124.769531,18.9804688 C124.769531,18.6419254 124.772786,18.1731801 124.779297,17.5742188 C124.785807,16.9752574 124.789062,16.3046912 124.789062,15.5625 C124.789062,14.7031207 124.548179,13.9218785 124.066406,13.21875 C123.584633,12.5156215 122.562508,11.8385449 121,11.1875 C119.437492,11.8385449 118.421877,12.5156215 117.953125,13.21875 C117.484373,13.9218785 117.25,14.7031207 117.25,15.5625 L117.25,15.5625 Z M124.769531,1.51953125 L117.269531,1.51953125 L117.269531,5.71875 C117.269531,6.31771133 117.477863,6.98176719 117.894531,7.7109375 C118.3112,8.44010781 119.346346,9.14973613 121,9.83984375 C122.666675,9.14973613 123.711586,8.44010781 124.134766,7.7109375 C124.557945,6.98176719 124.769531,6.31771133 124.769531,5.71875 L124.769531,1.51953125 Z" id="icon-elapsed"></path>
                </g>
            </g>
        </g>
    </g>
</svg>