<?xml version="1.0" encoding="UTF-8" standalone="no"?>
<svg width="20px" height="17px" viewBox="0 0 20 17" version="1.1" xmlns="http://www.w3.org/2000/svg" xmlns:xlink="http://www.w3.org/1999/xlink">
    <!-- Generator: Sketch 39.1 (31720) - http://www.bohemiancoding.com/sketch -->
    <title>icon-twitter</title>
    <desc>Created with Sketch.</desc>
    <defs></defs>
    <g id="Page-1" stroke="none" stroke-width="1" fill="none" fill-rule="evenodd">
        <g id="Astronaut-Selected" transform="translate(-865.000000, -605.000000)" fill="#C7578E">
            <path d="M878.359375,606.355469 C878.880211,606.355469 879.365232,606.453124 879.814453,606.648438 C880.263674,606.843751 880.65755,607.110675 880.996094,607.449219 C881.399742,607.371093 881.793618,607.260417 882.177734,607.117188 C882.561851,606.973958 882.923175,606.804688 883.261719,606.609375 C883.13151,607.013023 882.929689,607.380858 882.65625,607.712891 C882.382811,608.044924 882.063804,608.315103 881.699219,608.523438 C882.050783,608.484375 882.399087,608.419271 882.744141,608.328125 C883.089194,608.236979 883.424478,608.119792 883.75,607.976562 C883.515624,608.328127 883.245444,608.6569 882.939453,608.962891 C882.633462,609.268882 882.304689,609.545572 881.953125,609.792969 C881.966146,609.858073 881.972656,609.929687 881.972656,610.007812 L881.972656,610.242188 C881.972656,611.388027 881.751304,612.550124 881.308594,613.728516 C880.865883,614.906907 880.211593,615.971349 879.345703,616.921875 C878.479813,617.872401 877.408861,618.647132 876.132812,619.246094 C874.856764,619.845055 873.398446,620.144531 871.757812,620.144531 C870.742182,620.144531 869.768885,620.007814 868.837891,619.734375 C867.906896,619.460936 867.044275,619.076825 866.25,618.582031 C866.39323,618.595052 866.533202,618.608073 866.669922,618.621094 C866.806641,618.634115 866.953124,618.640625 867.109375,618.640625 C867.942712,618.640625 868.740231,618.507163 869.501953,618.240234 C870.263676,617.973306 870.950518,617.605471 871.5625,617.136719 C870.781246,617.123698 870.084638,616.889325 869.472656,616.433594 C868.860674,615.977862 868.437501,615.404951 868.203125,614.714844 C868.320313,614.740886 868.434244,614.760417 868.544922,614.773438 C868.6556,614.786458 868.769531,614.792969 868.886719,614.792969 C869.04297,614.792969 869.202473,614.779948 869.365234,614.753906 C869.527996,614.727864 869.680989,614.695313 869.824219,614.65625 C869.003902,614.499999 868.320315,614.102868 867.773438,613.464844 C867.22656,612.82682 866.953125,612.08464 866.953125,611.238281 L866.953125,611.228516 L866.953125,611.199219 C867.187501,611.329428 867.441405,611.433593 867.714844,611.511719 C867.988283,611.589844 868.274738,611.628906 868.574219,611.628906 C868.092446,611.316405 867.70508,610.906253 867.412109,610.398438 C867.119139,609.890622 866.972656,609.337243 866.972656,608.738281 C866.972656,608.412759 867.014974,608.103517 867.099609,607.810547 C867.184245,607.517577 867.304687,607.240887 867.460938,606.980469 C867.903648,607.514326 868.398435,607.996092 868.945312,608.425781 C869.49219,608.855471 870.081377,609.226561 870.712891,609.539062 C871.344404,609.851564 872.00846,610.102213 872.705078,610.291016 C873.401696,610.479819 874.12109,610.59375 874.863281,610.632812 C874.837239,610.502604 874.814453,610.369141 874.794922,610.232422 C874.775391,610.095702 874.765625,609.96224 874.765625,609.832031 C874.765625,608.868485 875.117184,608.04818 875.820312,607.371094 C876.523441,606.694007 877.369787,606.355469 878.359375,606.355469 L878.359375,606.355469 Z M878.359375,605.105469 C877.747393,605.105469 877.167971,605.209634 876.621094,605.417969 C876.074216,605.626303 875.589195,605.916014 875.166016,606.287109 C874.742836,606.658205 874.391277,607.094399 874.111328,607.595703 C873.831379,608.097008 873.652344,608.634112 873.574219,609.207031 C872.558589,609.011718 871.608077,608.653648 870.722656,608.132812 C869.837235,607.611977 869.069014,606.960941 868.417969,606.179688 C868.300781,606.036458 868.157553,605.925782 867.988281,605.847656 C867.81901,605.769531 867.64323,605.730469 867.460938,605.730469 L867.412109,605.730469 C867.392578,605.730469 867.376302,605.736979 867.363281,605.75 C867.167968,605.763021 866.982423,605.821614 866.806641,605.925781 C866.630858,606.029948 866.490886,606.166666 866.386719,606.335938 C866.178384,606.700523 866.015626,607.087889 865.898438,607.498047 C865.781249,607.908205 865.722656,608.321613 865.722656,608.738281 C865.722656,609.024741 865.748698,609.304686 865.800781,609.578125 C865.852865,609.851564 865.924479,610.111978 866.015625,610.359375 C865.911458,610.476563 865.833334,610.60677 865.78125,610.75 C865.729166,610.89323 865.703125,611.042968 865.703125,611.199219 L865.703125,611.238281 C865.703125,611.850263 865.817056,612.43294 866.044922,612.986328 C866.272788,613.539716 866.58854,614.031248 866.992188,614.460938 C866.966146,614.565105 866.95638,614.672525 866.962891,614.783203 C866.969401,614.893881 866.985677,615.001302 867.011719,615.105469 C867.154949,615.535158 867.350259,615.929035 867.597656,616.287109 C867.845053,616.645184 868.131509,616.960936 868.457031,617.234375 C868.235676,617.286459 868.011069,617.325521 867.783203,617.351562 C867.555337,617.377604 867.33073,617.390625 867.109375,617.390625 C866.979166,617.390625 866.855469,617.38737 866.738281,617.380859 C866.621093,617.374349 866.503907,617.364583 866.386719,617.351562 C866.360677,617.338542 866.337891,617.332031 866.318359,617.332031 L866.25,617.332031 C865.989582,617.332031 865.748699,617.410155 865.527344,617.566406 C865.305988,617.722657 865.14974,617.924478 865.058594,618.171875 C864.967447,618.445314 864.970703,618.722004 865.068359,619.001953 C865.166016,619.281902 865.33854,619.493489 865.585938,619.636719 C866.041669,619.936199 866.516925,620.193358 867.011719,620.408203 C867.506513,620.623048 868.01432,620.805338 868.535156,620.955078 C869.055992,621.104818 869.586586,621.215494 870.126953,621.287109 C870.66732,621.358724 871.210935,621.394531 871.757812,621.394531 C873.528655,621.394531 875.120436,621.078779 876.533203,620.447266 C877.945971,619.815752 879.143875,618.982427 880.126953,617.947266 C881.110031,616.912104 881.865232,615.733731 882.392578,614.412109 C882.919925,613.090488 883.196614,611.752611 883.222656,610.398438 C883.509116,610.15104 883.782551,609.890626 884.042969,609.617188 C884.303387,609.343749 884.537759,609.050783 884.746094,608.738281 C884.824219,608.634114 884.886067,608.516928 884.931641,608.386719 C884.977214,608.25651 885,608.119792 885,607.976562 C885,607.768228 884.951172,607.572918 884.853516,607.390625 C884.755859,607.208332 884.628907,607.065105 884.472656,606.960938 C884.537761,606.71354 884.534506,606.469402 884.462891,606.228516 C884.391276,605.987629 884.257813,605.789063 884.0625,605.632812 C883.945312,605.541666 883.81836,605.473308 883.681641,605.427734 C883.544921,605.382161 883.404949,605.359375 883.261719,605.359375 C883.157552,605.359375 883.053386,605.372396 882.949219,605.398438 C882.845052,605.424479 882.740886,605.463541 882.636719,605.515625 C882.441405,605.645834 882.233074,605.75651 882.011719,605.847656 C881.790363,605.938803 881.562501,606.016927 881.328125,606.082031 C880.898435,605.76953 880.432945,605.528647 879.931641,605.359375 C879.430336,605.190103 878.906253,605.105469 878.359375,605.105469 L878.359375,605.105469 Z" id="icon-twitter"></path>
        </g>
    </g>
</svg>