<?xml version="1.0" encoding="UTF-8" standalone="no"?>
<svg width="20px" height="21px" viewBox="0 0 20 21" version="1.1" xmlns="http://www.w3.org/2000/svg" xmlns:xlink="http://www.w3.org/1999/xlink">
    <!-- Generator: Sketch 39.1 (31720) - http://www.bohemiancoding.com/sketch -->
    <title>icon-launch</title>
    <desc>Created with Sketch.</desc>
    <defs></defs>
    <g id="Page-1" stroke="none" stroke-width="1" fill="none" fill-rule="evenodd">
        <g id="Astronaut-Selected" transform="translate(-974.000000, -422.000000)" fill="#C7578E">
            <g id="Group-2" transform="translate(754.000000, 414.000000)">
                <path d="M238.75,10.125 L233.75,10.125 L233.75,8.875 C233.75,8.70572832 233.688152,8.55924541 233.564453,8.43554688 C233.440755,8.31184834 233.294272,8.25 233.125,8.25 C232.955728,8.25 232.809245,8.31184834 232.685547,8.43554688 C232.561848,8.55924541 232.5,8.70572832 232.5,8.875 L232.5,10.125 L227.5,10.125 L227.5,8.875 C227.5,8.70572832 227.438152,8.55924541 227.314453,8.43554688 C227.190755,8.31184834 227.044272,8.25 226.875,8.25 C226.705728,8.25 226.559245,8.31184834 226.435547,8.43554688 C226.311848,8.55924541 226.25,8.70572832 226.25,8.875 L226.25,10.125 L221.25,10.125 C220.898436,10.125 220.602215,10.2454415 220.361328,10.4863281 C220.120442,10.7272147 220,11.0234357 220,11.375 L220,27 C220,27.3385434 220.120442,27.6315092 220.361328,27.8789062 C220.602215,28.1263033 220.898436,28.25 221.25,28.25 L238.75,28.25 C239.101564,28.25 239.397785,28.1263033 239.638672,27.8789062 C239.879558,27.6315092 240,27.3385434 240,27 L240,11.375 C240,11.0234357 239.879558,10.7272147 239.638672,10.4863281 C239.397785,10.2454415 239.101564,10.125 238.75,10.125 L238.75,10.125 Z M238.75,27 L221.25,27 L221.25,11.375 L226.25,11.375 L226.25,12 C226.25,12.1692717 226.311848,12.3157546 226.435547,12.4394531 C226.559245,12.5631517 226.705728,12.625 226.875,12.625 C227.044272,12.625 227.190755,12.5631517 227.314453,12.4394531 C227.438152,12.3157546 227.5,12.1692717 227.5,12 L227.5,11.375 L232.5,11.375 L232.5,12 C232.5,12.1692717 232.561848,12.3157546 232.685547,12.4394531 C232.809245,12.5631517 232.955728,12.625 233.125,12.625 C233.294272,12.625 233.440755,12.5631517 233.564453,12.4394531 C233.688152,12.3157546 233.75,12.1692717 233.75,12 L233.75,11.375 L238.75,11.375 L238.75,27 Z M234.375,18.25 L235.625,18.25 C235.794272,18.25 235.940755,18.1881517 236.064453,18.0644531 C236.188152,17.9407546 236.25,17.7942717 236.25,17.625 L236.25,16.375 C236.25,16.2057283 236.188152,16.0592454 236.064453,15.9355469 C235.940755,15.8118483 235.794272,15.75 235.625,15.75 L234.375,15.75 C234.205728,15.75 234.059245,15.8118483 233.935547,15.9355469 C233.811848,16.0592454 233.75,16.2057283 233.75,16.375 L233.75,17.625 C233.75,17.7942717 233.811848,17.9407546 233.935547,18.0644531 C234.059245,18.1881517 234.205728,18.25 234.375,18.25 L234.375,18.25 Z M234.375,23.25 L235.625,23.25 C235.794272,23.25 235.940755,23.1881517 236.064453,23.0644531 C236.188152,22.9407546 236.25,22.7942717 236.25,22.625 L236.25,21.375 C236.25,21.2057283 236.188152,21.0592454 236.064453,20.9355469 C235.940755,20.8118483 235.794272,20.75 235.625,20.75 L234.375,20.75 C234.205728,20.75 234.059245,20.8118483 233.935547,20.9355469 C233.811848,21.0592454 233.75,21.2057283 233.75,21.375 L233.75,22.625 C233.75,22.7942717 233.811848,22.9407546 233.935547,23.0644531 C234.059245,23.1881517 234.205728,23.25 234.375,23.25 L234.375,23.25 Z M230.625,20.75 L229.375,20.75 C229.205728,20.75 229.059245,20.8118483 228.935547,20.9355469 C228.811848,21.0592454 228.75,21.2057283 228.75,21.375 L228.75,22.625 C228.75,22.7942717 228.811848,22.9407546 228.935547,23.0644531 C229.059245,23.1881517 229.205728,23.25 229.375,23.25 L230.625,23.25 C230.794272,23.25 230.940755,23.1881517 231.064453,23.0644531 C231.188152,22.9407546 231.25,22.7942717 231.25,22.625 L231.25,21.375 C231.25,21.2057283 231.188152,21.0592454 231.064453,20.9355469 C230.940755,20.8118483 230.794272,20.75 230.625,20.75 L230.625,20.75 Z M230.625,15.75 L229.375,15.75 C229.205728,15.75 229.059245,15.8118483 228.935547,15.9355469 C228.811848,16.0592454 228.75,16.2057283 228.75,16.375 L228.75,17.625 C228.75,17.7942717 228.811848,17.9407546 228.935547,18.0644531 C229.059245,18.1881517 229.205728,18.25 229.375,18.25 L230.625,18.25 C230.794272,18.25 230.940755,18.1881517 231.064453,18.0644531 C231.188152,17.9407546 231.25,17.7942717 231.25,17.625 L231.25,16.375 C231.25,16.2057283 231.188152,16.0592454 231.064453,15.9355469 C230.940755,15.8118483 230.794272,15.75 230.625,15.75 L230.625,15.75 Z M225.625,15.75 L224.375,15.75 C224.205728,15.75 224.059245,15.8118483 223.935547,15.9355469 C223.811848,16.0592454 223.75,16.2057283 223.75,16.375 L223.75,17.625 C223.75,17.7942717 223.811848,17.9407546 223.935547,18.0644531 C224.059245,18.1881517 224.205728,18.25 224.375,18.25 L225.625,18.25 C225.794272,18.25 225.940755,18.1881517 226.064453,18.0644531 C226.188152,17.9407546 226.25,17.7942717 226.25,17.625 L226.25,16.375 C226.25,16.2057283 226.188152,16.0592454 226.064453,15.9355469 C225.940755,15.8118483 225.794272,15.75 225.625,15.75 L225.625,15.75 Z M225.625,20.75 L224.375,20.75 C224.205728,20.75 224.059245,20.8118483 223.935547,20.9355469 C223.811848,21.0592454 223.75,21.2057283 223.75,21.375 L223.75,22.625 C223.75,22.7942717 223.811848,22.9407546 223.935547,23.0644531 C224.059245,23.1881517 224.205728,23.25 224.375,23.25 L225.625,23.25 C225.794272,23.25 225.940755,23.1881517 226.064453,23.0644531 C226.188152,22.9407546 226.25,22.7942717 226.25,22.625 L226.25,21.375 C226.25,21.2057283 226.188152,21.0592454 226.064453,20.9355469 C225.940755,20.8118483 225.794272,20.75 225.625,20.75 L225.625,20.75 Z" id="icon-launch"></path>
            </g>
        </g>
    </g>
</svg>